# xmcd CD database file
#
# Track frame offsets:
#	167
#	15469
#	30382
#	45844
#	59119
#	74719
#	87919
#	103294
#	118294
#	132994
#	147169
#	161269
#	174394
#	188569
#	200644
#	215044
#	235669
#
# Disc length: 3281 seconds
#
# Revision: 0
# Processed by: cddbd v1.5.1PL0 Copyright (c) Steve Scherf et al.
# Submitted via: CDex 1.51
#
DISCID=f40ccf11
DTITLE=Duke Ellington  - Tresor Cd 2
DYEAR=1900
DGENRE=Jazz
TTITLE0=Sepia Panorama
TTITLE1=In a melotone
TTITLE2=Chloe [Song of the swamp]
TTITLE3=Day Dream
TTITLE4=A lull at dawn 
TTITLE5=Thake the a train 
TTITLE6=Bakiff 
TTITLE7=I Got it bad and that ain't good 
TTITLE8=Menelik-the lion of judah 
TTITLE9=PAssion of flower 
TTITLE10=Rocks in my bed 
TTITLE11=Chelsea Bridge 
TTITLE12=Perdido
TTITLE13=The C Jam Blues 
TTITLE14=I'm Beginning to see the light 
TTITLE15=Work song 
TTITLE16=Dancer in love
EXTD=
EXTT0=
EXTT1=
EXTT2=
EXTT3=
EXTT4=
EXTT5=
EXTT6=
EXTT7=
EXTT8=
EXTT9=
EXTT10=
EXTT11=
EXTT12=
EXTT13=
EXTT14=
EXTT15=
EXTT16=
PLAYORDER=
